# xmcd CD database file
#
# Track frame offsets:
#	150
#	19338
#	36847
#	58469
#	81665
#	100958
#	113415
#	130598
#
# Disc length: 2030 seconds
#
# Revision: 0
# Processed by: cddbd v1.4PL0 Copyright (c) Steve Scherf et al.
# Submitted via: NeoAudio 9.9.9
#
DISCID=6a07ec08
DTITLE=Marathon - Too Much Trouble for nothing
DYEAR=2000
DGENRE=Blues
TTITLE0=In throught the night
TTITLE1=Turn off the lights
TTITLE2=I'm gonna drink a lot tonight
TTITLE3=Mama sorry
TTITLE4=You don't mess around with me
TTITLE5=Marathon
TTITLE6=Rainy days
TTITLE7=Night life is calling
EXTD=YEAR: 2000
EXTT0=
EXTT1=
EXTT2=
EXTT3=
EXTT4=
EXTT5=
EXTT6=
EXTT7=
PLAYORDER=
